Coordinates
version=1
nRows=12
nColumns=63
inDegrees=yes

Units are S.I. units (second, meters, Newtons, ...)
If the header above contains a line with 'inDegrees', this indicates whether rotational values are in degrees (yes) or radians (no).

endheader
time	pelvis_tilt	pelvis_list	pelvis_rotation	pelvis_tx	pelvis_ty	pelvis_tz	hip_flexion_r	hip_adduction_r	hip_rotation_r	knee_angle_r	knee_angle_r_beta	ankle_angle_r	subtalar_angle_r	mtp_angle_r	hip_flexion_l	hip_adduction_l	hip_rotation_l	knee_angle_l	knee_angle_l_beta	ankle_angle_l	subtalar_angle_l	mtp_angle_l	L5_S1_Flex_Ext	L5_S1_Lat_Bending	L5_S1_axial_rotation	L4_L5_Flex_Ext	L4_L5_Lat_Bending	L4_L5_axial_rotation	L3_L4_Flex_Ext	L3_L4_Lat_Bending	L3_L4_axial_rotation	L2_L3_Flex_Ext	L2_L3_Lat_Bending	L2_L3_axial_rotation	L1_L2_Flex_Ext	L1_L2_Lat_Bending	L1_L2_axial_rotation	L1_T12_Flex_Ext	L1_T12_Lat_Bending	L1_T12_axial_rotation	Abs_r3	Abs_r2	Abs_r1	Abs_t1	Abs_t2	neck_flexion	neck_bending	neck_rotation	arm_flex_r	arm_add_r	arm_rot_r	elbow_flex_r	pro_sup_r	wrist_flex_r	wrist_dev_r	arm_flex_l	arm_add_l	arm_rot_l	elbow_flex_l	pro_sup_l	wrist_flex_l	wrist_dev_l
1.000000	-3.555639	-4.427609	87.892364	0.224812	0.954257	0.540936	4.287470	-3.738653	-11.499858	7.443855	0.129920	22.131631	15.762754	0.000000	6.308967	2.748969	4.257163	6.827263	0.119158	16.740374	-7.875238	0.000000	0.041578	-1.209640	-0.152865	0.077215	-1.608821	-0.162419	0.068309	-2.941118	-0.162419	0.047520	-2.941118	-0.133757	0.038610	-2.466697	-0.124203	0.023758	-1.873732	-0.114649	0.296991	-13.683684	-0.850191	0.000000	0.000000	19.938191	9.772537	-29.918883	25.009263	-18.932344	6.758993	143.369418	84.246103	-15.487071	24.003844	19.479755	-7.716439	183.769149	1.889805	6.532084	-9.671139	3.008378
1.016949	-3.471668	-4.076197	87.590910	0.225094	0.954938	0.541460	3.938292	-3.626463	-11.172327	7.316908	0.127704	21.903072	15.702424	0.000000	5.890941	2.657840	4.123815	6.722831	0.117336	16.644792	-8.101488	0.000000	0.018814	-1.229360	-0.222830	0.034940	-1.635049	-0.236757	0.030910	-2.989066	-0.236757	0.021503	-2.989066	-0.194977	0.017471	-2.506911	-0.181050	0.010750	-1.904279	-0.167123	0.134388	-13.906766	-1.239316	0.000000	0.000000	19.876913	9.860676	-30.203354	27.291261	-19.838154	6.793727	143.410002	84.806651	-15.456877	23.855921	19.432872	-8.117001	178.466465	2.522987	13.335398	-10.080978	4.238952
1.033898	-3.337393	-3.722883	87.285284	0.225234	0.955575	0.542050	3.614108	-3.480521	-10.893464	7.239080	0.126346	21.716101	15.689573	0.000000	5.460106	2.532851	4.156599	6.599714	0.115187	16.512585	-8.593796	0.000000	-0.001527	-1.240856	-0.310949	-0.002836	-1.650338	-0.330384	-0.002509	-3.017016	-0.330384	-0.001746	-3.017016	-0.272081	-0.001418	-2.530353	-0.252646	-0.000873	-1.922085	-0.233212	-0.010909	-14.036807	-1.729407	0.000000	0.000000	19.914133	9.736696	-30.450908	29.473463	-20.732282	6.502961	143.431707	85.343116	-15.097645	23.561789	19.270064	-8.205140	177.820777	2.253764	16.448280	-10.226590	5.149345
1.050847	-3.169810	-3.372732	86.968887	0.225290	0.956143	0.542713	3.327343	-3.311967	-10.597853	7.223880	0.126080	21.582004	15.673792	0.000000	5.027992	2.382923	4.278319	6.467315	0.112876	16.365051	-9.245512	0.000000	-0.018784	-1.247155	-0.410985	-0.034884	-1.658716	-0.436671	-0.030860	-3.032333	-0.436671	-0.021468	-3.032333	-0.359612	-0.017443	-2.543199	-0.333925	-0.010733	-1.931843	-0.308239	-0.134171	-14.108067	-2.285774	0.000000	0.000000	20.052401	9.434100	-30.698288	31.581197	-21.596424	5.864235	143.420156	85.875458	-14.348162	23.084802	19.051049	-8.280880	177.077330	1.944566	19.974550	-10.476014	6.045827
1.067797	-2.965736	-3.016110	86.664977	0.225303	0.956659	0.543388	3.056619	-3.120622	-10.351395	7.272460	0.126928	21.512375	15.688039	0.000000	4.575763	2.204509	4.470646	6.313093	0.110184	16.239232	-9.979593	0.000000	-0.035558	-1.248055	-0.526543	-0.066034	-1.659913	-0.559452	-0.058418	-3.034521	-0.559452	-0.040639	-3.034521	-0.460725	-0.033019	-2.545034	-0.427816	-0.020318	-1.933237	-0.394907	-0.253985	-14.118249	-2.928473	0.000000	0.000000	20.298017	8.896034	-30.987926	33.666219	-22.419802	4.998998	143.365547	86.370313	-13.411158	22.416665	18.760562	-8.351229	176.126791	1.634889	23.629462	-10.989569	7.008987
1.084746	-2.761430	-2.676297	86.416093	0.225311	0.957152	0.544052	2.808736	-2.934239	-10.173804	7.355097	0.128371	21.474214	15.719050	0.000000	4.137046	2.028490	4.761166	6.142155	0.107201	16.101099	-10.772908	0.000000	-0.050455	-1.249770	-0.651963	-0.093701	-1.662194	-0.692710	-0.082893	-3.038690	-0.692710	-0.057665	-3.038690	-0.570467	-0.046853	-2.548531	-0.529720	-0.028830	-1.935893	-0.488972	-0.360398	-14.137646	-3.626021	0.000000	0.000000	20.636283	8.226478	-31.372477	35.676721	-23.180934	3.871658	143.311438	86.869569	-12.296668	21.645248	18.435754	-8.434962	175.018744	1.342255	27.302135	-11.686627	8.027632
1.101695	-2.563288	-2.355607	86.180479	0.225346	0.957615	0.544589	2.580729	-2.759753	-10.035958	7.469291	0.130364	21.487034	15.779334	0.000000	3.704065	1.863595	5.093616	5.951381	0.103871	15.975204	-11.599300	0.000000	-0.062590	-1.251016	-0.770653	-0.116237	-1.663851	-0.818819	-0.102830	-3.041720	-0.818819	-0.071535	-3.041720	-0.674321	-0.058121	-2.551072	-0.626155	-0.035764	-1.937824	-0.577990	-0.447077	-14.151744	-4.286140	0.000000	0.000000	21.061680	7.392657	-31.764051	37.624524	-23.957669	2.591652	143.258320	87.340325	-11.061220	20.664307	18.084540	-8.511024	173.721493	1.080543	30.769735	-12.586341	9.028348
1.118644	-2.377396	-2.078266	86.026195	0.225400	0.958067	0.544991	2.381293	-2.597178	-10.001177	7.596978	0.132592	21.520491	15.865604	0.000000	3.317851	1.707894	5.503161	5.760494	0.100540	15.866899	-12.372457	0.000000	-0.072315	-1.253918	-0.889743	-0.134295	-1.667711	-0.945352	-0.118806	-3.048776	-0.945352	-0.082648	-3.048776	-0.778525	-0.067151	-2.556989	-0.722916	-0.041321	-1.942319	-0.667307	-0.516536	-14.184569	-4.948483	0.000000	0.000000	21.568319	6.448163	-32.182395	39.485595	-24.713970	1.219147	143.260282	87.819008	-9.851010	19.547242	17.733100	-8.591232	172.256695	0.860979	33.976874	-13.666792	10.035627
1.135593	-2.213324	-1.856530	85.875036	0.225549	0.958490	0.545192	2.231832	-2.454776	-9.980459	7.742678	0.135135	21.570240	15.972032	0.000000	2.993125	1.557570	5.689812	5.593228	0.097620	15.856172	-12.782382	0.000000	-0.077083	-1.258334	-0.982582	-0.143152	-1.673584	-1.043994	-0.126640	-3.059514	-1.043994	-0.088099	-3.059514	-0.859759	-0.071580	-2.565995	-0.798348	-0.044045	-1.949160	-0.736937	-0.550599	-14.234527	-5.464827	0.000000	0.000000	22.125087	5.390769	-32.593188	41.240028	-25.534870	-0.143691	143.369919	88.270876	-8.926103	18.312875	17.401299	-8.661250	170.429002	0.694915	36.982763	-14.883438	10.899827
1.152542	-2.079447	-1.690845	85.707920	0.225821	0.958895	0.545166	2.123472	-2.336270	-9.940237	7.879115	0.137516	21.612396	16.083683	0.000000	2.723335	1.430207	5.800611	5.444207	0.095019	15.851883	-13.074817	0.000000	-0.077525	-1.266101	-1.031711	-0.143972	-1.683914	-1.096192	-0.127366	-3.078398	-1.096192	-0.088603	-3.078398	-0.902747	-0.071990	-2.581833	-0.838265	-0.044298	-1.961190	-0.773783	-0.553753	-14.322387	-5.738065	0.000000	0.000000	22.685778	4.265188	-33.038280	42.842211	-26.454927	-1.626893	143.626973	88.584547	-7.999061	17.150702	17.116604	-8.707474	168.573829	0.568432	39.476882	-16.137911	11.645792
1.169492	-1.968794	-1.597482	85.571317	0.226172	0.959270	0.544936	2.067631	-2.230873	-9.914069	8.002009	0.139661	21.642330	16.178403	0.000000	2.530126	1.310825	5.841275	5.319614	0.092845	15.852132	-13.183899	0.000000	-0.073273	-1.277342	-1.051545	-0.136075	-1.698865	-1.117267	-0.120380	-3.105730	-1.117267	-0.083743	-3.105730	-0.920102	-0.068041	-2.604756	-0.854381	-0.041868	-1.978603	-0.788659	-0.523380	-14.449551	-5.848379	0.000000	0.000000	23.210221	3.109517	-33.576868	44.299617	-27.406648	-3.137890	144.052882	88.700986	-7.280841	16.244864	16.871960	-8.750018	166.718452	0.479858	41.437617	-17.391855	12.283787
1.186441	-1.886176	-1.567751	85.405307	0.226638	0.959624	0.544584	2.073859	-2.146692	-9.862941	8.120508	0.141730	21.642601	16.281989	0.000000	2.403169	1.208041	5.777909	5.219530	0.091098	15.810267	-13.179300	0.000000	-0.064050	-1.292729	-1.026964	-0.118947	-1.719330	-1.091150	-0.105228	-3.143142	-1.091150	-0.073203	-3.143142	-0.898594	-0.059477	-2.636133	-0.834409	-0.036598	-2.002437	-0.770223	-0.457503	-14.623610	-5.711668	0.000000	0.000000	23.628584	2.016534	-34.166416	45.600376	-28.436045	-4.670595	144.589142	88.631428	-6.645474	15.572225	16.697459	-8.783110	164.977767	0.449211	42.771937	-18.587750	12.755321
